<mxfile host="app.diagrams.net" modified="2021-04-22T01:46:26.839Z" agent="5.0 (Macintosh; Intel Mac OS X 11_2_3) AppleWebKit/537.36 (KHTML, like Gecko) Chrome/89.0.4389.128 Safari/537.36" etag="mja1ZqG6IK8u61VgU7t0" version="14.6.5" type="github">
  <diagram id="R2lEEEUBdFMjLlhIrx00" name="Page-1">
    <mxGraphModel dx="845" dy="638" grid="0" gridSize="10" guides="1" tooltips="1" connect="1" arrows="1" fold="1" page="1" pageScale="1" pageWidth="850" pageHeight="1100" math="0" shadow="0" extFonts="Permanent Marker^https://fonts.googleapis.com/css?family=Permanent+Marker">
      <root>
        <mxCell id="0" />
        <mxCell id="1" parent="0" />
        <mxCell id="UcTttzdPSBQX0fWlKhZi-41" style="edgeStyle=none;rounded=0;orthogonalLoop=1;jettySize=auto;html=1;exitX=0.25;exitY=1;exitDx=0;exitDy=0;entryX=0.5;entryY=0;entryDx=0;entryDy=0;endArrow=none;endFill=0;" edge="1" parent="1" source="UcTttzdPSBQX0fWlKhZi-2" target="UcTttzdPSBQX0fWlKhZi-27">
          <mxGeometry relative="1" as="geometry" />
        </mxCell>
        <mxCell id="UcTttzdPSBQX0fWlKhZi-42" style="edgeStyle=none;rounded=0;orthogonalLoop=1;jettySize=auto;html=1;exitX=0.5;exitY=1;exitDx=0;exitDy=0;entryX=0.475;entryY=0.08;entryDx=0;entryDy=0;entryPerimeter=0;endArrow=none;endFill=0;" edge="1" parent="1" source="UcTttzdPSBQX0fWlKhZi-2" target="UcTttzdPSBQX0fWlKhZi-28">
          <mxGeometry relative="1" as="geometry" />
        </mxCell>
        <mxCell id="UcTttzdPSBQX0fWlKhZi-43" style="edgeStyle=none;rounded=0;orthogonalLoop=1;jettySize=auto;html=1;exitX=0.75;exitY=1;exitDx=0;exitDy=0;entryX=0.5;entryY=0;entryDx=0;entryDy=0;endArrow=none;endFill=0;" edge="1" parent="1" source="UcTttzdPSBQX0fWlKhZi-2" target="UcTttzdPSBQX0fWlKhZi-29">
          <mxGeometry relative="1" as="geometry" />
        </mxCell>
        <mxCell id="UcTttzdPSBQX0fWlKhZi-48" style="edgeStyle=none;rounded=0;orthogonalLoop=1;jettySize=auto;html=1;exitX=0.25;exitY=0;exitDx=0;exitDy=0;endArrow=none;endFill=0;" edge="1" parent="1" source="UcTttzdPSBQX0fWlKhZi-2" target="UcTttzdPSBQX0fWlKhZi-5">
          <mxGeometry relative="1" as="geometry" />
        </mxCell>
        <mxCell id="UcTttzdPSBQX0fWlKhZi-49" style="edgeStyle=none;rounded=0;orthogonalLoop=1;jettySize=auto;html=1;exitX=0.5;exitY=0;exitDx=0;exitDy=0;entryX=0.5;entryY=1;entryDx=0;entryDy=0;endArrow=none;endFill=0;" edge="1" parent="1" source="UcTttzdPSBQX0fWlKhZi-2" target="UcTttzdPSBQX0fWlKhZi-7">
          <mxGeometry relative="1" as="geometry" />
        </mxCell>
        <mxCell id="UcTttzdPSBQX0fWlKhZi-50" style="edgeStyle=none;rounded=0;orthogonalLoop=1;jettySize=auto;html=1;exitX=0.75;exitY=0;exitDx=0;exitDy=0;entryX=0;entryY=1;entryDx=0;entryDy=0;endArrow=none;endFill=0;" edge="1" parent="1" source="UcTttzdPSBQX0fWlKhZi-2" target="UcTttzdPSBQX0fWlKhZi-47">
          <mxGeometry relative="1" as="geometry" />
        </mxCell>
        <mxCell id="UcTttzdPSBQX0fWlKhZi-2" value="学生" style="whiteSpace=wrap;html=1;align=center;" vertex="1" parent="1">
          <mxGeometry x="120" y="240" width="100" height="40" as="geometry" />
        </mxCell>
        <mxCell id="UcTttzdPSBQX0fWlKhZi-3" value="超级管理员" style="whiteSpace=wrap;html=1;align=center;" vertex="1" parent="1">
          <mxGeometry x="420" y="110" width="100" height="40" as="geometry" />
        </mxCell>
        <mxCell id="UcTttzdPSBQX0fWlKhZi-4" value="考试" style="whiteSpace=wrap;html=1;align=center;horizontal=1;" vertex="1" parent="1">
          <mxGeometry x="100" y="440" width="40" height="100" as="geometry" />
        </mxCell>
        <mxCell id="UcTttzdPSBQX0fWlKhZi-5" value="studentId" style="ellipse;whiteSpace=wrap;html=1;align=center;fontStyle=4;" vertex="1" parent="1">
          <mxGeometry x="60" y="190" width="70" height="30" as="geometry" />
        </mxCell>
        <mxCell id="UcTttzdPSBQX0fWlKhZi-7" value="密码" style="ellipse;whiteSpace=wrap;html=1;align=center;" vertex="1" parent="1">
          <mxGeometry x="135" y="190" width="70" height="30" as="geometry" />
        </mxCell>
        <mxCell id="UcTttzdPSBQX0fWlKhZi-32" style="edgeStyle=none;rounded=0;orthogonalLoop=1;jettySize=auto;html=1;exitX=0.25;exitY=1;exitDx=0;exitDy=0;entryX=0.5;entryY=0;entryDx=0;entryDy=0;endArrow=none;endFill=0;" edge="1" parent="1" source="UcTttzdPSBQX0fWlKhZi-8" target="UcTttzdPSBQX0fWlKhZi-24">
          <mxGeometry relative="1" as="geometry" />
        </mxCell>
        <mxCell id="UcTttzdPSBQX0fWlKhZi-34" style="edgeStyle=none;rounded=0;orthogonalLoop=1;jettySize=auto;html=1;exitX=0.5;exitY=1;exitDx=0;exitDy=0;entryX=0.5;entryY=0;entryDx=0;entryDy=0;endArrow=none;endFill=0;" edge="1" parent="1" source="UcTttzdPSBQX0fWlKhZi-8" target="UcTttzdPSBQX0fWlKhZi-23">
          <mxGeometry relative="1" as="geometry" />
        </mxCell>
        <mxCell id="UcTttzdPSBQX0fWlKhZi-35" style="edgeStyle=none;rounded=0;orthogonalLoop=1;jettySize=auto;html=1;exitX=0.75;exitY=1;exitDx=0;exitDy=0;entryX=0.5;entryY=0;entryDx=0;entryDy=0;endArrow=none;endFill=0;" edge="1" parent="1" source="UcTttzdPSBQX0fWlKhZi-8" target="UcTttzdPSBQX0fWlKhZi-25">
          <mxGeometry relative="1" as="geometry" />
        </mxCell>
        <mxCell id="UcTttzdPSBQX0fWlKhZi-36" style="edgeStyle=none;rounded=0;orthogonalLoop=1;jettySize=auto;html=1;exitX=1;exitY=1;exitDx=0;exitDy=0;entryX=0.5;entryY=0;entryDx=0;entryDy=0;endArrow=none;endFill=0;" edge="1" parent="1" source="UcTttzdPSBQX0fWlKhZi-8" target="UcTttzdPSBQX0fWlKhZi-26">
          <mxGeometry relative="1" as="geometry" />
        </mxCell>
        <mxCell id="UcTttzdPSBQX0fWlKhZi-8" value="教师" style="whiteSpace=wrap;html=1;align=center;" vertex="1" parent="1">
          <mxGeometry x="420" y="240" width="100" height="40" as="geometry" />
        </mxCell>
        <mxCell id="UcTttzdPSBQX0fWlKhZi-9" value="管理" style="shape=rhombus;perimeter=rhombusPerimeter;whiteSpace=wrap;html=1;align=center;" vertex="1" parent="1">
          <mxGeometry x="430" y="180" width="80" height="40" as="geometry" />
        </mxCell>
        <mxCell id="UcTttzdPSBQX0fWlKhZi-10" value="管理" style="shape=rhombus;perimeter=rhombusPerimeter;whiteSpace=wrap;html=1;align=center;" vertex="1" parent="1">
          <mxGeometry x="280" y="240" width="80" height="40" as="geometry" />
        </mxCell>
        <mxCell id="UcTttzdPSBQX0fWlKhZi-11" value="" style="endArrow=none;html=1;rounded=0;exitX=0.5;exitY=1;exitDx=0;exitDy=0;entryX=0.5;entryY=0;entryDx=0;entryDy=0;" edge="1" parent="1" source="UcTttzdPSBQX0fWlKhZi-3" target="UcTttzdPSBQX0fWlKhZi-9">
          <mxGeometry relative="1" as="geometry">
            <mxPoint x="210" y="360" as="sourcePoint" />
            <mxPoint x="370" y="360" as="targetPoint" />
          </mxGeometry>
        </mxCell>
        <mxCell id="UcTttzdPSBQX0fWlKhZi-12" value="" style="endArrow=none;html=1;rounded=0;entryX=0.5;entryY=0;entryDx=0;entryDy=0;" edge="1" parent="1" target="UcTttzdPSBQX0fWlKhZi-8">
          <mxGeometry relative="1" as="geometry">
            <mxPoint x="470" y="220" as="sourcePoint" />
            <mxPoint x="630" y="220" as="targetPoint" />
          </mxGeometry>
        </mxCell>
        <mxCell id="UcTttzdPSBQX0fWlKhZi-13" value="" style="endArrow=none;html=1;rounded=0;exitX=1;exitY=0.5;exitDx=0;exitDy=0;entryX=0;entryY=0.5;entryDx=0;entryDy=0;" edge="1" parent="1" source="UcTttzdPSBQX0fWlKhZi-2" target="UcTttzdPSBQX0fWlKhZi-10">
          <mxGeometry relative="1" as="geometry">
            <mxPoint x="250" y="270" as="sourcePoint" />
            <mxPoint x="250" y="280" as="targetPoint" />
          </mxGeometry>
        </mxCell>
        <mxCell id="UcTttzdPSBQX0fWlKhZi-14" value="" style="endArrow=none;html=1;rounded=0;exitX=1;exitY=0.5;exitDx=0;exitDy=0;entryX=0;entryY=0.5;entryDx=0;entryDy=0;" edge="1" parent="1" source="UcTttzdPSBQX0fWlKhZi-10" target="UcTttzdPSBQX0fWlKhZi-8">
          <mxGeometry relative="1" as="geometry">
            <mxPoint x="350" y="340" as="sourcePoint" />
            <mxPoint x="510" y="340" as="targetPoint" />
          </mxGeometry>
        </mxCell>
        <mxCell id="UcTttzdPSBQX0fWlKhZi-15" value="成绩" style="whiteSpace=wrap;html=1;align=center;" vertex="1" parent="1">
          <mxGeometry x="150" y="440" width="40" height="100" as="geometry" />
        </mxCell>
        <mxCell id="UcTttzdPSBQX0fWlKhZi-17" value="题库" style="whiteSpace=wrap;html=1;align=center;" vertex="1" parent="1">
          <mxGeometry x="440" y="440" width="40" height="100" as="geometry" />
        </mxCell>
        <mxCell id="UcTttzdPSBQX0fWlKhZi-18" value="学生" style="whiteSpace=wrap;html=1;align=center;" vertex="1" parent="1">
          <mxGeometry x="490" y="440" width="40" height="100" as="geometry" />
        </mxCell>
        <mxCell id="UcTttzdPSBQX0fWlKhZi-19" value="试卷管理" style="whiteSpace=wrap;html=1;align=center;" vertex="1" parent="1">
          <mxGeometry x="390" y="440" width="40" height="100" as="geometry" />
        </mxCell>
        <mxCell id="UcTttzdPSBQX0fWlKhZi-20" value="留言" style="whiteSpace=wrap;html=1;align=center;" vertex="1" parent="1">
          <mxGeometry x="200" y="440" width="40" height="100" as="geometry" />
        </mxCell>
        <mxCell id="UcTttzdPSBQX0fWlKhZi-21" value="成绩管理" style="whiteSpace=wrap;html=1;align=center;" vertex="1" parent="1">
          <mxGeometry x="540" y="440" width="40" height="100" as="geometry" />
        </mxCell>
        <mxCell id="UcTttzdPSBQX0fWlKhZi-38" style="edgeStyle=none;rounded=0;orthogonalLoop=1;jettySize=auto;html=1;exitX=0.5;exitY=1;exitDx=0;exitDy=0;entryX=0.5;entryY=0;entryDx=0;entryDy=0;endArrow=none;endFill=0;" edge="1" parent="1" source="UcTttzdPSBQX0fWlKhZi-23" target="UcTttzdPSBQX0fWlKhZi-17">
          <mxGeometry relative="1" as="geometry" />
        </mxCell>
        <mxCell id="UcTttzdPSBQX0fWlKhZi-23" value="添加、组卷" style="shape=rhombus;perimeter=rhombusPerimeter;whiteSpace=wrap;html=1;align=center;" vertex="1" parent="1">
          <mxGeometry x="440" y="320" width="40" height="100" as="geometry" />
        </mxCell>
        <mxCell id="UcTttzdPSBQX0fWlKhZi-37" style="edgeStyle=none;rounded=0;orthogonalLoop=1;jettySize=auto;html=1;exitX=0.5;exitY=1;exitDx=0;exitDy=0;entryX=0.5;entryY=0;entryDx=0;entryDy=0;endArrow=none;endFill=0;" edge="1" parent="1" source="UcTttzdPSBQX0fWlKhZi-24" target="UcTttzdPSBQX0fWlKhZi-19">
          <mxGeometry relative="1" as="geometry" />
        </mxCell>
        <mxCell id="UcTttzdPSBQX0fWlKhZi-24" value="发布、编辑" style="shape=rhombus;perimeter=rhombusPerimeter;whiteSpace=wrap;html=1;align=center;" vertex="1" parent="1">
          <mxGeometry x="390" y="320" width="40" height="100" as="geometry" />
        </mxCell>
        <mxCell id="UcTttzdPSBQX0fWlKhZi-39" style="edgeStyle=none;rounded=0;orthogonalLoop=1;jettySize=auto;html=1;exitX=0.5;exitY=1;exitDx=0;exitDy=0;entryX=0.5;entryY=0;entryDx=0;entryDy=0;endArrow=none;endFill=0;" edge="1" parent="1" source="UcTttzdPSBQX0fWlKhZi-25" target="UcTttzdPSBQX0fWlKhZi-18">
          <mxGeometry relative="1" as="geometry" />
        </mxCell>
        <mxCell id="UcTttzdPSBQX0fWlKhZi-25" value="添加、编辑" style="shape=rhombus;perimeter=rhombusPerimeter;whiteSpace=wrap;html=1;align=center;" vertex="1" parent="1">
          <mxGeometry x="490" y="320" width="40" height="100" as="geometry" />
        </mxCell>
        <mxCell id="UcTttzdPSBQX0fWlKhZi-40" style="edgeStyle=none;rounded=0;orthogonalLoop=1;jettySize=auto;html=1;exitX=0.5;exitY=1;exitDx=0;exitDy=0;entryX=0.5;entryY=0;entryDx=0;entryDy=0;endArrow=none;endFill=0;" edge="1" parent="1" source="UcTttzdPSBQX0fWlKhZi-26" target="UcTttzdPSBQX0fWlKhZi-21">
          <mxGeometry relative="1" as="geometry" />
        </mxCell>
        <mxCell id="UcTttzdPSBQX0fWlKhZi-26" value="查询" style="shape=rhombus;perimeter=rhombusPerimeter;whiteSpace=wrap;html=1;align=center;" vertex="1" parent="1">
          <mxGeometry x="540" y="320" width="40" height="100" as="geometry" />
        </mxCell>
        <mxCell id="UcTttzdPSBQX0fWlKhZi-44" style="edgeStyle=none;rounded=0;orthogonalLoop=1;jettySize=auto;html=1;exitX=0.5;exitY=1;exitDx=0;exitDy=0;entryX=0.5;entryY=0;entryDx=0;entryDy=0;endArrow=none;endFill=0;" edge="1" parent="1" source="UcTttzdPSBQX0fWlKhZi-27" target="UcTttzdPSBQX0fWlKhZi-4">
          <mxGeometry relative="1" as="geometry" />
        </mxCell>
        <mxCell id="UcTttzdPSBQX0fWlKhZi-27" value="参加" style="shape=rhombus;perimeter=rhombusPerimeter;whiteSpace=wrap;html=1;align=center;" vertex="1" parent="1">
          <mxGeometry x="100" y="320" width="40" height="100" as="geometry" />
        </mxCell>
        <mxCell id="UcTttzdPSBQX0fWlKhZi-45" style="edgeStyle=none;rounded=0;orthogonalLoop=1;jettySize=auto;html=1;exitX=0.5;exitY=1;exitDx=0;exitDy=0;entryX=0.5;entryY=0;entryDx=0;entryDy=0;endArrow=none;endFill=0;" edge="1" parent="1" source="UcTttzdPSBQX0fWlKhZi-28" target="UcTttzdPSBQX0fWlKhZi-15">
          <mxGeometry relative="1" as="geometry" />
        </mxCell>
        <mxCell id="UcTttzdPSBQX0fWlKhZi-28" value="查询" style="shape=rhombus;perimeter=rhombusPerimeter;whiteSpace=wrap;html=1;align=center;" vertex="1" parent="1">
          <mxGeometry x="150" y="320" width="40" height="100" as="geometry" />
        </mxCell>
        <mxCell id="UcTttzdPSBQX0fWlKhZi-46" style="edgeStyle=none;rounded=0;orthogonalLoop=1;jettySize=auto;html=1;exitX=0.5;exitY=1;exitDx=0;exitDy=0;entryX=0.5;entryY=0;entryDx=0;entryDy=0;endArrow=none;endFill=0;" edge="1" parent="1" source="UcTttzdPSBQX0fWlKhZi-29" target="UcTttzdPSBQX0fWlKhZi-20">
          <mxGeometry relative="1" as="geometry" />
        </mxCell>
        <mxCell id="UcTttzdPSBQX0fWlKhZi-29" value="发布、回复" style="shape=rhombus;perimeter=rhombusPerimeter;whiteSpace=wrap;html=1;align=center;" vertex="1" parent="1">
          <mxGeometry x="200" y="320" width="40" height="100" as="geometry" />
        </mxCell>
        <mxCell id="UcTttzdPSBQX0fWlKhZi-47" value="..." style="ellipse;whiteSpace=wrap;html=1;align=center;" vertex="1" parent="1">
          <mxGeometry x="210" y="190" width="70" height="30" as="geometry" />
        </mxCell>
        <mxCell id="UcTttzdPSBQX0fWlKhZi-55" style="edgeStyle=none;rounded=0;orthogonalLoop=1;jettySize=auto;html=1;exitX=0.5;exitY=1;exitDx=0;exitDy=0;endArrow=none;endFill=0;" edge="1" parent="1" source="UcTttzdPSBQX0fWlKhZi-51" target="UcTttzdPSBQX0fWlKhZi-3">
          <mxGeometry relative="1" as="geometry" />
        </mxCell>
        <mxCell id="UcTttzdPSBQX0fWlKhZi-51" value="adminId" style="ellipse;whiteSpace=wrap;html=1;align=center;fontStyle=4;" vertex="1" parent="1">
          <mxGeometry x="360" y="60" width="70" height="30" as="geometry" />
        </mxCell>
        <mxCell id="UcTttzdPSBQX0fWlKhZi-56" style="edgeStyle=none;rounded=0;orthogonalLoop=1;jettySize=auto;html=1;exitX=0.5;exitY=1;exitDx=0;exitDy=0;entryX=0.5;entryY=0;entryDx=0;entryDy=0;endArrow=none;endFill=0;" edge="1" parent="1" source="UcTttzdPSBQX0fWlKhZi-53" target="UcTttzdPSBQX0fWlKhZi-3">
          <mxGeometry relative="1" as="geometry" />
        </mxCell>
        <mxCell id="UcTttzdPSBQX0fWlKhZi-53" value="密码" style="ellipse;whiteSpace=wrap;html=1;align=center;" vertex="1" parent="1">
          <mxGeometry x="435" y="60" width="70" height="30" as="geometry" />
        </mxCell>
        <mxCell id="UcTttzdPSBQX0fWlKhZi-57" style="edgeStyle=none;rounded=0;orthogonalLoop=1;jettySize=auto;html=1;exitX=0.5;exitY=1;exitDx=0;exitDy=0;entryX=0.75;entryY=0;entryDx=0;entryDy=0;endArrow=none;endFill=0;" edge="1" parent="1" source="UcTttzdPSBQX0fWlKhZi-54" target="UcTttzdPSBQX0fWlKhZi-3">
          <mxGeometry relative="1" as="geometry" />
        </mxCell>
        <mxCell id="UcTttzdPSBQX0fWlKhZi-54" value="..." style="ellipse;whiteSpace=wrap;html=1;align=center;" vertex="1" parent="1">
          <mxGeometry x="510" y="60" width="70" height="30" as="geometry" />
        </mxCell>
        <mxCell id="UcTttzdPSBQX0fWlKhZi-61" style="edgeStyle=none;rounded=0;orthogonalLoop=1;jettySize=auto;html=1;exitX=0;exitY=0.5;exitDx=0;exitDy=0;entryX=1;entryY=0.25;entryDx=0;entryDy=0;endArrow=none;endFill=0;" edge="1" parent="1" source="UcTttzdPSBQX0fWlKhZi-58" target="UcTttzdPSBQX0fWlKhZi-8">
          <mxGeometry relative="1" as="geometry" />
        </mxCell>
        <mxCell id="UcTttzdPSBQX0fWlKhZi-58" value="teacherId" style="ellipse;whiteSpace=wrap;html=1;align=center;fontStyle=4;" vertex="1" parent="1">
          <mxGeometry x="550" y="210" width="70" height="30" as="geometry" />
        </mxCell>
        <mxCell id="UcTttzdPSBQX0fWlKhZi-62" style="edgeStyle=none;rounded=0;orthogonalLoop=1;jettySize=auto;html=1;exitX=0;exitY=0.5;exitDx=0;exitDy=0;entryX=1;entryY=0.5;entryDx=0;entryDy=0;endArrow=none;endFill=0;" edge="1" parent="1" source="UcTttzdPSBQX0fWlKhZi-59" target="UcTttzdPSBQX0fWlKhZi-8">
          <mxGeometry relative="1" as="geometry" />
        </mxCell>
        <mxCell id="UcTttzdPSBQX0fWlKhZi-59" value="密码" style="ellipse;whiteSpace=wrap;html=1;align=center;" vertex="1" parent="1">
          <mxGeometry x="550" y="245" width="70" height="30" as="geometry" />
        </mxCell>
        <mxCell id="UcTttzdPSBQX0fWlKhZi-63" style="edgeStyle=none;rounded=0;orthogonalLoop=1;jettySize=auto;html=1;exitX=0;exitY=0.5;exitDx=0;exitDy=0;entryX=1;entryY=0.75;entryDx=0;entryDy=0;endArrow=none;endFill=0;" edge="1" parent="1" source="UcTttzdPSBQX0fWlKhZi-60" target="UcTttzdPSBQX0fWlKhZi-8">
          <mxGeometry relative="1" as="geometry" />
        </mxCell>
        <mxCell id="UcTttzdPSBQX0fWlKhZi-60" value="..." style="ellipse;whiteSpace=wrap;html=1;align=center;" vertex="1" parent="1">
          <mxGeometry x="550" y="280" width="70" height="30" as="geometry" />
        </mxCell>
        <mxCell id="UcTttzdPSBQX0fWlKhZi-66" style="edgeStyle=none;rounded=0;orthogonalLoop=1;jettySize=auto;html=1;exitX=1;exitY=0.5;exitDx=0;exitDy=0;entryX=0;entryY=0.25;entryDx=0;entryDy=0;endArrow=none;endFill=0;" edge="1" parent="1" source="UcTttzdPSBQX0fWlKhZi-64" target="UcTttzdPSBQX0fWlKhZi-4">
          <mxGeometry relative="1" as="geometry" />
        </mxCell>
        <mxCell id="UcTttzdPSBQX0fWlKhZi-64" value="examCode" style="ellipse;whiteSpace=wrap;html=1;align=center;fontStyle=4;" vertex="1" parent="1">
          <mxGeometry x="20" y="430" width="70" height="30" as="geometry" />
        </mxCell>
        <mxCell id="UcTttzdPSBQX0fWlKhZi-67" style="edgeStyle=none;rounded=0;orthogonalLoop=1;jettySize=auto;html=1;exitX=1;exitY=0.5;exitDx=0;exitDy=0;entryX=0;entryY=0.5;entryDx=0;entryDy=0;endArrow=none;endFill=0;" edge="1" parent="1" source="UcTttzdPSBQX0fWlKhZi-65" target="UcTttzdPSBQX0fWlKhZi-4">
          <mxGeometry relative="1" as="geometry" />
        </mxCell>
        <mxCell id="UcTttzdPSBQX0fWlKhZi-65" value="试卷id" style="ellipse;whiteSpace=wrap;html=1;align=center;" vertex="1" parent="1">
          <mxGeometry x="20" y="475" width="70" height="30" as="geometry" />
        </mxCell>
        <mxCell id="UcTttzdPSBQX0fWlKhZi-69" style="edgeStyle=none;rounded=0;orthogonalLoop=1;jettySize=auto;html=1;exitX=1;exitY=0.5;exitDx=0;exitDy=0;entryX=0;entryY=0.75;entryDx=0;entryDy=0;endArrow=none;endFill=0;" edge="1" parent="1" source="UcTttzdPSBQX0fWlKhZi-68" target="UcTttzdPSBQX0fWlKhZi-4">
          <mxGeometry relative="1" as="geometry" />
        </mxCell>
        <mxCell id="UcTttzdPSBQX0fWlKhZi-68" value="..." style="ellipse;whiteSpace=wrap;html=1;align=center;" vertex="1" parent="1">
          <mxGeometry x="20" y="520" width="70" height="30" as="geometry" />
        </mxCell>
        <mxCell id="UcTttzdPSBQX0fWlKhZi-86" style="edgeStyle=none;rounded=0;orthogonalLoop=1;jettySize=auto;html=1;exitX=0;exitY=0.5;exitDx=0;exitDy=0;entryX=1;entryY=0.25;entryDx=0;entryDy=0;endArrow=none;endFill=0;" edge="1" parent="1" source="UcTttzdPSBQX0fWlKhZi-70" target="UcTttzdPSBQX0fWlKhZi-21">
          <mxGeometry relative="1" as="geometry" />
        </mxCell>
        <mxCell id="UcTttzdPSBQX0fWlKhZi-70" value="scoreId" style="ellipse;whiteSpace=wrap;html=1;align=center;fontStyle=4;" vertex="1" parent="1">
          <mxGeometry x="600" y="430" width="70" height="30" as="geometry" />
        </mxCell>
        <mxCell id="UcTttzdPSBQX0fWlKhZi-87" style="edgeStyle=none;rounded=0;orthogonalLoop=1;jettySize=auto;html=1;exitX=0;exitY=0.5;exitDx=0;exitDy=0;entryX=1;entryY=0.5;entryDx=0;entryDy=0;endArrow=none;endFill=0;" edge="1" parent="1" source="UcTttzdPSBQX0fWlKhZi-73" target="UcTttzdPSBQX0fWlKhZi-21">
          <mxGeometry relative="1" as="geometry" />
        </mxCell>
        <mxCell id="UcTttzdPSBQX0fWlKhZi-73" value="用户名" style="ellipse;whiteSpace=wrap;html=1;align=center;" vertex="1" parent="1">
          <mxGeometry x="600" y="475" width="70" height="30" as="geometry" />
        </mxCell>
        <mxCell id="UcTttzdPSBQX0fWlKhZi-74" style="edgeStyle=none;rounded=0;orthogonalLoop=1;jettySize=auto;html=1;exitX=0.5;exitY=1;exitDx=0;exitDy=0;endArrow=none;endFill=0;" edge="1" parent="1" source="UcTttzdPSBQX0fWlKhZi-70" target="UcTttzdPSBQX0fWlKhZi-70">
          <mxGeometry relative="1" as="geometry" />
        </mxCell>
        <mxCell id="UcTttzdPSBQX0fWlKhZi-81" style="edgeStyle=none;rounded=0;orthogonalLoop=1;jettySize=auto;html=1;exitX=0;exitY=0.5;exitDx=0;exitDy=0;entryX=1;entryY=0.13;entryDx=0;entryDy=0;entryPerimeter=0;endArrow=none;endFill=0;" edge="1" parent="1" source="UcTttzdPSBQX0fWlKhZi-77" target="UcTttzdPSBQX0fWlKhZi-20">
          <mxGeometry relative="1" as="geometry" />
        </mxCell>
        <mxCell id="UcTttzdPSBQX0fWlKhZi-77" value="id" style="ellipse;whiteSpace=wrap;html=1;align=center;fontStyle=4;" vertex="1" parent="1">
          <mxGeometry x="250" y="415" width="70" height="30" as="geometry" />
        </mxCell>
        <mxCell id="UcTttzdPSBQX0fWlKhZi-82" style="edgeStyle=none;rounded=0;orthogonalLoop=1;jettySize=auto;html=1;exitX=0;exitY=0.5;exitDx=0;exitDy=0;entryX=1;entryY=0.25;entryDx=0;entryDy=0;endArrow=none;endFill=0;" edge="1" parent="1" source="UcTttzdPSBQX0fWlKhZi-78" target="UcTttzdPSBQX0fWlKhZi-20">
          <mxGeometry relative="1" as="geometry" />
        </mxCell>
        <mxCell id="UcTttzdPSBQX0fWlKhZi-78" value="标题" style="ellipse;whiteSpace=wrap;html=1;align=center;" vertex="1" parent="1">
          <mxGeometry x="250" y="450" width="70" height="30" as="geometry" />
        </mxCell>
        <mxCell id="UcTttzdPSBQX0fWlKhZi-83" style="edgeStyle=none;rounded=0;orthogonalLoop=1;jettySize=auto;html=1;exitX=0;exitY=0.5;exitDx=0;exitDy=0;entryX=1;entryY=0.5;entryDx=0;entryDy=0;endArrow=none;endFill=0;" edge="1" parent="1" source="UcTttzdPSBQX0fWlKhZi-79" target="UcTttzdPSBQX0fWlKhZi-20">
          <mxGeometry relative="1" as="geometry" />
        </mxCell>
        <mxCell id="UcTttzdPSBQX0fWlKhZi-79" value="内容" style="ellipse;whiteSpace=wrap;html=1;align=center;" vertex="1" parent="1">
          <mxGeometry x="250" y="490" width="70" height="30" as="geometry" />
        </mxCell>
        <mxCell id="UcTttzdPSBQX0fWlKhZi-84" style="edgeStyle=none;rounded=0;orthogonalLoop=1;jettySize=auto;html=1;exitX=0;exitY=0.5;exitDx=0;exitDy=0;entryX=1;entryY=0.82;entryDx=0;entryDy=0;entryPerimeter=0;endArrow=none;endFill=0;" edge="1" parent="1" source="UcTttzdPSBQX0fWlKhZi-80" target="UcTttzdPSBQX0fWlKhZi-20">
          <mxGeometry relative="1" as="geometry" />
        </mxCell>
        <mxCell id="UcTttzdPSBQX0fWlKhZi-80" value="留言时间" style="ellipse;whiteSpace=wrap;html=1;align=center;" vertex="1" parent="1">
          <mxGeometry x="250" y="530" width="70" height="30" as="geometry" />
        </mxCell>
        <mxCell id="UcTttzdPSBQX0fWlKhZi-89" style="edgeStyle=none;rounded=0;orthogonalLoop=1;jettySize=auto;html=1;exitX=0;exitY=0.5;exitDx=0;exitDy=0;entryX=1;entryY=0.75;entryDx=0;entryDy=0;endArrow=none;endFill=0;" edge="1" parent="1" source="UcTttzdPSBQX0fWlKhZi-88" target="UcTttzdPSBQX0fWlKhZi-21">
          <mxGeometry relative="1" as="geometry" />
        </mxCell>
        <mxCell id="UcTttzdPSBQX0fWlKhZi-88" value="..." style="ellipse;whiteSpace=wrap;html=1;align=center;" vertex="1" parent="1">
          <mxGeometry x="600" y="520" width="70" height="30" as="geometry" />
        </mxCell>
        <mxCell id="UcTttzdPSBQX0fWlKhZi-94" style="edgeStyle=none;rounded=0;orthogonalLoop=1;jettySize=auto;html=1;exitX=0.5;exitY=0;exitDx=0;exitDy=0;entryX=0.25;entryY=1;entryDx=0;entryDy=0;endArrow=none;endFill=0;" edge="1" parent="1" source="UcTttzdPSBQX0fWlKhZi-91" target="UcTttzdPSBQX0fWlKhZi-17">
          <mxGeometry relative="1" as="geometry" />
        </mxCell>
        <mxCell id="UcTttzdPSBQX0fWlKhZi-91" value="paperId" style="ellipse;whiteSpace=wrap;html=1;align=center;fontStyle=4;" vertex="1" parent="1">
          <mxGeometry x="350" y="560" width="70" height="30" as="geometry" />
        </mxCell>
        <mxCell id="UcTttzdPSBQX0fWlKhZi-96" style="edgeStyle=none;rounded=0;orthogonalLoop=1;jettySize=auto;html=1;exitX=0.5;exitY=0;exitDx=0;exitDy=0;entryX=0.75;entryY=1;entryDx=0;entryDy=0;endArrow=none;endFill=0;" edge="1" parent="1" source="UcTttzdPSBQX0fWlKhZi-92" target="UcTttzdPSBQX0fWlKhZi-17">
          <mxGeometry relative="1" as="geometry" />
        </mxCell>
        <mxCell id="UcTttzdPSBQX0fWlKhZi-92" value="题目编号" style="ellipse;whiteSpace=wrap;html=1;align=center;" vertex="1" parent="1">
          <mxGeometry x="500" y="560" width="70" height="30" as="geometry" />
        </mxCell>
        <mxCell id="UcTttzdPSBQX0fWlKhZi-95" style="edgeStyle=none;rounded=0;orthogonalLoop=1;jettySize=auto;html=1;exitX=0.5;exitY=0;exitDx=0;exitDy=0;entryX=0.5;entryY=1;entryDx=0;entryDy=0;endArrow=none;endFill=0;" edge="1" parent="1" source="UcTttzdPSBQX0fWlKhZi-93" target="UcTttzdPSBQX0fWlKhZi-17">
          <mxGeometry relative="1" as="geometry" />
        </mxCell>
        <mxCell id="UcTttzdPSBQX0fWlKhZi-93" value="题目类型" style="ellipse;whiteSpace=wrap;html=1;align=center;" vertex="1" parent="1">
          <mxGeometry x="425" y="560" width="70" height="30" as="geometry" />
        </mxCell>
      </root>
    </mxGraphModel>
  </diagram>
</mxfile>
